{
    "asset" : {
        "generator" : "Khronos glTF Blender I/O v3.2.43",
        "version" : "2.0"
    },
    "scene" : 0,
    "scenes" : [
        {
            "name" : "Scene",
            "nodes" : [
                0
            ]
        }
    ],
    "nodes" : [
        {
            "mesh" : 0,
            "name" : "VCOE2100434-S2",
            "rotation" : [
                0.7071068286895752,
                0,
                0,
                0.7071067094802856
            ],
            "scale" : [
                0.009999999776482582,
                0.009999999776482582,
                0.009999999776482582
            ]
        }
    ],
    "materials" : [
        {
            "doubleSided" : true,
            "name" : "body_FRONT_751134",
            "pbrMetallicRoughness" : {
                "metallicFactor" : 0,
                "roughnessFactor" : 0.4636862874031067
            }
        }
    ],
    "meshes" : [
        {
            "name" : "VCOE2100434-S2",
            "primitives" : [
                {
                    "attributes" : {
                        "POSITION" : 0,
                        "NORMAL" : 1,
                        "TEXCOORD_0" : 2
                    },
                    "indices" : 3,
                    "material" : 0
                }
            ]
        }
    ],
    "accessors" : [
        {
            "bufferView" : 0,
            "componentType" : 5126,
            "count" : 135739,
            "max" : [
                26.206066131591797,
                14.738329887390137,
                34.093414306640625
            ],
            "min" : [
                -26.38509178161621,
                -12.670676231384277,
                -31.256256103515625
            ],
            "type" : "VEC3"
        },
        {
            "bufferView" : 1,
            "componentType" : 5126,
            "count" : 135739,
            "type" : "VEC3"
        },
        {
            "bufferView" : 2,
            "componentType" : 5126,
            "count" : 135739,
            "type" : "VEC2"
        },
        {
            "bufferView" : 3,
            "componentType" : 5125,
            "count" : 782070,
            "type" : "SCALAR"
        }
    ],
    "bufferViews" : [
        {
            "buffer" : 0,
            "byteLength" : 1628868,
            "byteOffset" : 0
        },
        {
            "buffer" : 0,
            "byteLength" : 1628868,
            "byteOffset" : 1628868
        },
        {
            "buffer" : 0,
            "byteLength" : 1085912,
            "byteOffset" : 3257736
        },
        {
            "buffer" : 0,
            "byteLength" : 3128280,
            "byteOffset" : 4343648
        }
    ],
    "buffers" : [
        {
            "byteLength" : 7471928,
            "uri" : "g.bin"
        }
    ]
}
